<svg width="146" height="18" viewBox="0 0 146 18" fill="none" xmlns="http://www.w3.org/2000/svg">
<path d="M10.7154 5.68668L14.1932 15.5091L17.671 5.68668H19.5979L15.1332 17.812H13.2533L9.77546 8.36554L6.34465 17.812H4.46475L0 5.68668H2.02089L5.4517 15.4621L8.9765 5.68668H10.7154ZM32.2402 11.3264V11.7023H23.4047C23.4047 14.7572 24.8146 16.3551 27.4935 16.3551C28.9034 16.3551 30.2193 15.8851 31.3943 14.9452L32.0522 16.3551C30.9713 17.342 29.1854 18 27.4935 18C23.6867 18 21.4308 15.6031 21.4308 11.7023C21.4308 7.98956 23.7807 5.4047 27.1175 5.4047C30.3133 5.4047 32.2402 7.66057 32.2402 11.3264ZM23.4517 10.4334H30.5013C30.3133 8.13055 29.1384 6.95561 27.1175 6.95561C25.0966 6.95561 23.8277 8.22454 23.4517 10.4334ZM37.8799 4.08877V5.68668H40.8407V7.2376H37.8799V17.812H35.953V7.2376H33.6031V5.68668H35.953V3.85379C35.953 1.31593 37.2689 0 39.5718 0C40.0888 0 40.6527 0.0939948 41.1697 0.234987V1.8799C40.7467 1.7389 40.3238 1.69191 39.9478 1.69191C38.6789 1.69191 37.8799 2.34987 37.8799 4.08877ZM49.9582 5.54569L49.9112 7.33159C49.5822 7.2376 49.1123 7.1436 48.6423 7.1436C47.4674 7.1436 46.6214 7.51958 46.0104 8.27154C45.4935 8.9765 45.1645 9.86945 45.1645 10.9034V17.812H43.2376V9.11749C43.2376 7.84856 43.1436 6.72063 43.0496 5.68668H44.8825L45.0705 7.94256C45.6815 6.29765 47.1384 5.4047 48.8773 5.4047C49.2533 5.4047 49.6292 5.4517 49.9582 5.54569ZM62.2715 7.80157V5.68668H64.1984V17.812H62.2715V15.6031C61.5666 17.154 60.0627 18 58.1828 18C54.9399 18 52.8251 15.5091 52.8251 11.7493C52.8251 7.98956 54.9869 5.4047 58.1828 5.4047C60.0627 5.4047 61.5196 6.29765 62.2715 7.80157ZM62.2715 11.7023C62.2715 8.69452 60.9556 7.04961 58.5587 7.04961C56.1619 7.04961 54.799 8.78851 54.799 11.7493C54.799 14.7102 56.1619 16.3551 58.5587 16.3551C60.9556 16.3551 62.2715 14.6632 62.2715 11.7023ZM84.6893 10.1984V17.812H82.7624V10.2924C82.7624 8.03655 82.0104 7.04961 80.2245 7.04961C78.2037 7.04961 76.9817 8.50653 76.9817 10.9034V17.812H75.0078V10.2924C75.0078 8.08355 74.2559 7.04961 72.517 7.04961C70.4491 7.04961 69.1802 8.50653 69.1802 10.9034V17.812H67.2533V9.11749C67.2533 7.84856 67.1593 6.72063 67.0653 5.68668H68.8982L69.0862 7.84856C69.7911 6.29765 71.154 5.4047 72.9399 5.4047C74.8668 5.4047 76.0418 6.15666 76.6527 7.75457C77.3577 6.34465 78.8616 5.4047 80.6945 5.4047C83.3264 5.4047 84.6893 7.00261 84.6893 10.1984ZM98.3655 11.3264V11.7023H89.53C89.53 14.7572 90.9399 16.3551 93.6188 16.3551C95.0287 16.3551 96.3446 15.8851 97.5196 14.9452L98.1775 16.3551C97.0966 17.342 95.3107 18 93.6188 18C89.812 18 87.5561 15.6031 87.5561 11.7023C87.5561 7.98956 89.906 5.4047 93.2428 5.4047C96.4386 5.4047 98.3655 7.66057 98.3655 11.3264ZM89.577 10.4334H96.6266C96.4386 8.13055 95.2637 6.95561 93.2428 6.95561C91.2219 6.95561 89.953 8.22454 89.577 10.4334ZM107.483 5.68668V7.2376H104.005V13.8642C104.005 15.6501 104.804 16.3081 106.12 16.3081C106.59 16.3081 107.013 16.2141 107.436 16.0731V17.718C106.919 17.906 106.355 18 105.744 18C103.441 18 102.078 16.6371 102.078 14.1462V7.2376H99.7285V5.68668H102.078V2.58486L104.005 1.92689V5.68668H107.483ZM119.655 11.3264V11.7023H110.82C110.82 14.7572 112.23 16.3551 114.909 16.3551C116.319 16.3551 117.634 15.8851 118.809 14.9452L119.467 16.3551C118.386 17.342 116.601 18 114.909 18C111.102 18 108.846 15.6031 108.846 11.7023C108.846 7.98956 111.196 5.4047 114.533 5.4047C117.728 5.4047 119.655 7.66057 119.655 11.3264ZM110.867 10.4334H117.916C117.728 8.13055 116.554 6.95561 114.533 6.95561C112.512 6.95561 111.243 8.22454 110.867 10.4334ZM122.005 11.7493C122.005 7.98956 124.308 5.4047 127.88 5.4047C129.525 5.4047 131.17 6.01567 132.157 7.00261L131.499 8.45953C130.277 7.47258 129.149 7.04961 127.974 7.04961C125.483 7.04961 124.026 8.78851 124.026 11.7493C124.026 14.6632 125.483 16.3551 127.974 16.3551C129.149 16.3551 130.277 15.9321 131.499 14.9922L132.157 16.4021C131.123 17.389 129.431 18 127.786 18C124.261 18 122.005 15.5091 122.005 11.7493ZM145.598 10.1984V17.812H143.671V10.2924C143.671 8.08355 142.778 7.04961 140.851 7.04961C138.642 7.04961 137.138 8.55352 137.138 10.9034V17.812H135.211V0.0939948H137.138V7.66057C137.937 6.20366 139.441 5.4047 141.227 5.4047C144.141 5.4047 145.598 7.00261 145.598 10.1984Z" fill="white"/>
</svg>
