<svg width="18" height="18" viewBox="0 0 18 18" fill="none" xmlns="http://www.w3.org/2000/svg">
<g clip-path="url(#clip0_1_305)">
<path d="M9.66766 1.41765C8.16802 1.28559 6.6629 1.60119 5.34263 2.32455C4.02236 3.0479 2.94624 4.14651 2.25035 5.48146C1.55446 6.81641 1.27005 8.32773 1.4331 9.82432C1.59614 11.3209 2.19931 12.7355 3.16634 13.8893C4.13336 15.0431 5.42081 15.8842 6.86587 16.3063C8.31092 16.7284 9.84869 16.7125 11.2847 16.2606C12.7207 15.8087 13.9905 14.9412 14.9335 13.7676C15.8764 12.5941 16.4502 11.1673 16.5823 9.66764C16.7569 7.65721 16.127 5.65959 14.8307 4.11297C13.5345 2.56636 11.6777 1.59704 9.66766 1.41765ZM8.45367 15.2036C7.22669 15.0956 6.05931 14.6261 5.09914 13.8546C4.13898 13.0831 3.42915 12.0442 3.05943 10.8693C2.68971 9.69437 2.6767 8.43619 3.02204 7.25387C3.36739 6.07155 4.05557 5.01818 4.99957 4.22698C5.94358 3.43578 7.101 2.94228 8.32548 2.80888C9.54996 2.67547 10.7865 2.90817 11.8787 3.47754C12.971 4.0469 13.8698 4.92737 14.4617 6.00759C15.0535 7.08781 15.3117 8.31927 15.2037 9.54624C15.0568 11.1908 14.2637 12.7099 12.9983 13.7705C11.7329 14.8311 10.0986 15.3465 8.45367 15.2036Z" fill="#A5A5A5"/>
<path d="M9.71447 8.77536L10.0535 4.92493C10.0696 4.74212 10.0124 4.5604 9.89456 4.41975C9.77668 4.2791 9.60775 4.19103 9.42493 4.17494C9.24212 4.15884 9.0604 4.21602 8.91975 4.33391C8.77909 4.45179 8.69103 4.62072 8.67493 4.80354L8.31074 8.93933C8.29468 9.12213 8.35189 9.30383 8.46979 9.44445L10.3556 11.6944C10.4745 11.8315 10.6425 11.9163 10.8234 11.9306C11.0043 11.945 11.1835 11.8877 11.3226 11.7711C11.4617 11.6546 11.5494 11.4881 11.5669 11.3075C11.5843 11.1269 11.5302 10.9467 11.4161 10.8056L9.71447 8.77536Z" fill="#A5A5A5"/>
</g>
<defs>
<clipPath id="clip0_1_305">
<rect width="16" height="16" fill="white" transform="translate(1.45679) scale(1.03795) rotate(5.03246)"/>
</clipPath>
</defs>
</svg>
