<svg width="43" height="43" viewBox="0 0 43 43" fill="none" xmlns="http://www.w3.org/2000/svg">
<path d="M36.7007 36.709C34.6909 38.7169 32.3031 40.3067 29.6754 41.3864C27.0476 42.4662 24.2319 43.0145 21.391 42.9997C18.5501 42.9849 15.7403 42.4073 13.1239 41.3003C10.5075 40.1933 8.1364 38.5788 6.1476 36.5501C7.10796 37.4492 8.37639 37.946 9.6919 37.9383C11.0074 37.9306 12.2699 37.419 13.2197 36.5087C14.1695 35.5985 14.7343 34.3588 14.7978 33.0448C14.8614 31.7308 14.419 30.4424 13.5615 29.4447C14.6038 30.4906 15.8423 31.3205 17.206 31.8868C18.5697 32.453 20.0317 32.7445 21.5083 32.7445C22.9849 32.7445 24.4469 32.453 25.8106 31.8868C27.1743 31.3205 28.4128 30.4906 29.4551 29.4447C28.4918 30.408 27.9506 31.7146 27.9506 33.0769C27.9506 34.4392 28.4918 35.7457 29.4551 36.709C30.4184 37.6723 31.7249 38.2135 33.0872 38.2135C34.4496 38.2135 35.7561 37.6723 36.7194 36.709H36.7007Z" fill="#FFCC66"/>
<path d="M36.9718 14.1122C35.9736 15.0391 34.649 15.533 33.2876 15.4857C31.9262 15.4384 30.639 14.8538 29.7075 13.8598C27.6619 11.6988 24.8416 10.439 21.8671 10.3575C18.8926 10.276 16.0076 11.3794 13.8467 13.425C11.6857 15.4707 10.4259 18.2909 10.3444 21.2654C10.2629 24.2399 11.3663 27.125 13.4119 29.2859C12.4677 28.3509 11.1976 27.8185 9.86884 27.8007C8.54009 27.783 7.25624 28.2813 6.28739 29.1908C5.31853 30.1003 4.74019 31.3502 4.67401 32.6774C4.60784 34.0046 5.05899 35.3058 5.93257 36.3071C-7.03473 22.7041 2.65101 0.00429398 21.499 0.00429398C24.4908 -0.000696678 27.4505 0.620603 30.1878 1.82823C32.9251 3.03585 35.3793 4.80306 37.3925 7.01618C38.254 8.02364 38.6915 9.32578 38.613 10.649C38.5346 11.9723 37.9463 13.2136 36.9718 14.1122Z" fill="#6FABE6"/>
<path d="M13.2997 36.5688C12.5628 37.2782 11.6307 37.7513 10.6231 37.9273C9.61545 38.1033 8.57819 37.9742 7.64443 37.5566C6.71066 37.1389 5.92297 36.4518 5.38244 35.5834C4.8419 34.715 4.57318 33.7049 4.61074 32.6827C4.6483 31.6605 4.99044 30.6728 5.59325 29.8464C6.19606 29.02 7.03205 28.3925 7.99395 28.0446C8.95585 27.6966 9.99978 27.644 10.9918 27.8934C11.9838 28.1429 12.8787 28.6831 13.5615 29.4447C14.447 30.4358 14.9144 31.7313 14.8656 33.0595C14.8168 34.3877 14.2556 35.6453 13.2997 36.5688Z" fill="#9DCC6B"/>
<path d="M36.7007 36.709C36.2237 37.186 35.6575 37.5643 35.0343 37.8225C34.4111 38.0806 33.7431 38.2135 33.0686 38.2135C32.394 38.2135 31.7261 38.0806 31.1029 37.8225C30.4797 37.5643 29.9134 37.186 29.4364 36.709C28.9594 36.232 28.5811 35.6658 28.3229 35.0425C28.0648 34.4193 27.9319 33.7514 27.9319 33.0768C27.9319 32.4023 28.0648 31.7343 28.3229 31.1111C28.5811 30.4879 28.9594 29.9217 29.4364 29.4447C31.4766 27.4067 32.6536 24.6613 32.7232 21.7784C32.7929 18.8956 31.7498 16.0966 29.8104 13.9625C30.7291 14.8949 31.9688 15.4419 33.2769 15.4919C34.585 15.5419 35.8629 15.0911 36.8501 14.2315C37.8373 13.3719 38.4595 12.1681 38.5898 10.8656C38.7201 9.56308 38.3488 8.25989 37.5515 7.2217C41.1962 11.3186 43.138 16.6531 42.9798 22.1342C42.8217 27.6154 40.5755 32.8291 36.7007 36.709Z" fill="#DB5669"/>
<path d="M42.9179 19.6374C42.5855 23.4561 41.2384 27.1166 39.016 30.2398C36.7936 33.3629 33.7767 35.8353 30.2778 37.4008C29.6339 36.9852 29.0911 36.4307 28.6895 35.7779C28.2878 35.1252 28.0375 34.3908 27.9568 33.6286C27.8761 32.8664 27.9671 32.0959 28.2231 31.3735C28.4792 30.6511 28.8937 29.9952 29.4364 29.454C31.4765 27.416 32.6536 24.6706 32.7232 21.7877C32.7928 18.9049 31.7497 16.1059 29.8104 13.9718C30.7291 14.9042 31.9688 15.4512 33.2769 15.5012C34.585 15.5512 35.8628 15.1005 36.85 14.2408C37.8372 13.3812 38.4594 12.1774 38.5898 10.8749C38.7201 9.57239 38.3488 8.2692 37.5515 7.231C40.6394 10.6744 42.5231 15.0291 42.9179 19.6374Z" fill="#F26674"/>
<path d="M36.9718 14.1121C35.9736 15.039 34.649 15.5329 33.2876 15.4856C31.9262 15.4383 30.639 14.8537 29.7075 13.8597C27.6619 11.6987 24.8416 10.4389 21.8671 10.3574C18.8926 10.2759 16.0076 11.3793 13.8467 13.4249C11.6857 15.4706 10.4259 18.2908 10.3444 21.2653C10.2629 24.2398 11.3663 27.1249 13.4119 29.2858C12.7902 28.6502 12.0143 28.1866 11.16 27.9403C10.3057 27.6941 9.4021 27.6736 8.53747 27.8808C7.67283 28.088 6.8767 28.5158 6.2268 29.1226C5.57689 29.7293 5.09541 30.4942 4.82937 31.3426C2.10149 28.0095 0.445843 23.929 0.0799917 19.6375C0.442517 15.4748 2.00997 11.508 4.59073 8.22183C7.1715 4.93569 10.6538 2.47265 14.6119 1.13378C18.5699 -0.205085 22.8324 -0.361767 26.8781 0.68289C30.9238 1.72755 34.5775 3.92828 37.3925 7.01607C38.254 8.02353 38.6915 9.32568 38.613 10.6489C38.5346 11.9722 37.9463 13.2135 36.9718 14.1121Z" fill="#82BCF4"/>
<path d="M12.4116 37.2513C9.46949 35.881 6.87693 33.8607 4.82938 31.3426C5.07716 30.5512 5.513 29.8317 6.09958 29.2455C6.68617 28.6594 7.40604 28.2241 8.19759 27.9769C8.98915 27.7297 9.8288 27.678 10.6447 27.8261C11.4606 27.9743 12.2285 28.3179 12.8826 28.8277C13.5367 29.3374 14.0575 29.998 14.4005 30.753C14.7436 31.508 14.8986 32.3348 14.8523 33.1628C14.806 33.9907 14.5598 34.7951 14.1347 35.5072C13.7097 36.2192 13.1184 36.8176 12.4116 37.2513Z" fill="#B5E08C"/>
<path d="M30.2778 37.4008C27.4654 38.6655 24.413 39.3077 21.3294 39.2835C18.2458 39.2593 15.2038 38.5693 12.4115 37.2606C13.0544 36.8684 13.6031 36.3396 14.0187 35.7116C14.4343 35.0836 14.7067 34.3719 14.8164 33.6269C14.9262 32.8819 14.8706 32.1218 14.6538 31.4007C14.4369 30.6795 14.064 30.0149 13.5615 29.454C14.6038 30.4999 15.8423 31.3298 17.206 31.8961C18.5697 32.4623 20.0317 32.7538 21.5083 32.7538C22.9849 32.7538 24.4469 32.4623 25.8106 31.8961C27.1743 31.3298 28.4128 30.4999 29.4551 29.454C28.9115 29.994 28.4957 30.6488 28.2382 31.3703C27.9807 32.0919 27.888 32.862 27.9669 33.6241C28.0458 34.3862 28.2943 35.1209 28.6942 35.7745C29.0941 36.428 29.6352 36.9837 30.2778 37.4008Z" fill="#FFDE76"/>
</svg>
